# xmcd
#
# Track frame offsets:
#	150
#	21445
#	41615
#	63770
#
# Disc length: 1440 seconds
#
# Revision: 4
# Processed by: cddbd v1.5PL3 Copyright (c) Steve Scherf et al.
# Submitted via: CDex 1.50Beta5
#
DISCID=2c059e04
DTITLE=Little Creatures - GIANTS ARE DYING
DYEAR=1900
DGENRE=Rock
TTITLE0=ALL THE WAY TO THE BORDERLINE
TTITLE1=TIME WAS HERE
TTITLE2=VOICE IN PAIN
TTITLE3=GIANTS ARE DYING
EXTD=
EXTT0=
EXTT1=
EXTT2=
EXTT3=
PLAYORDER=
